<?xml version="1.0" encoding="utf-8"?>
<!-- Generator: Adobe Illustrator 25.1.0, SVG Export Plug-In . SVG Version: 6.00 Build 0)  -->
<svg version="1.1" id="Layer_1" xmlns="http://www.w3.org/2000/svg" xmlns:xlink="http://www.w3.org/1999/xlink" x="0px" y="0px"
	 viewBox="0 0 502 502" style="enable-background:new 0 0 502 502;" xml:space="preserve">
<style type="text/css">
	.st0{fill:#FFFFFF;}
</style>
<g>
	<g>
		<path class="st0" d="M428.5,73.5C381.1,26.1,318,0,251,0S120.9,26.1,73.5,73.5S0,184,0,251c0,45.2,12.1,89.5,35.1,128.1
			c21.9,36.8,52.9,67.5,89.9,89c38.1,22.2,81.7,33.9,126,33.9s87.9-11.7,126-33.9c37-21.5,68-52.3,89.9-89
			c23-38.6,35.1-82.9,35.1-128.1C502,184,475.9,120.9,428.5,73.5z M251,20c127.4,0,231,103.6,231,231c0,36-8.4,71.5-24.4,103.4
			c-21-30.4-48.6-56-80.6-74.6c-23-13.4-48.1-23-74-28.4c28.8-17.6,48.1-49.3,48.1-85.4c0-55.1-44.9-100-100-100s-100,44.9-100,100
			c0,36.1,19.3,67.9,48.1,85.4c-26,5.5-51,15-74,28.4c-32,18.6-59.6,44.2-80.6,74.6C28.4,322.5,20,287,20,251
			C20,123.6,123.6,20,251,20z M251,246c-44.1,0-80-35.9-80-80s35.9-80,80-80s80,35.9,80,80S295.1,246,251,246z M251,482
			c-79.1,0-153.4-41.2-195.5-108C97.6,307.2,171.9,266,251,266s153.4,41.2,195.5,108C404.4,440.8,330.1,482,251,482z"/>
		<path class="st0" d="M105.1,343.8c-7.9,7.7-15.4,16-22,24.8c-3.3,4.4-2.5,10.7,1.9,14c1.8,1.4,3.9,2,6,2c3,0,6-1.4,8-4
			c6-8,12.8-15.5,20-22.5c4-3.8,4.1-10.2,0.3-14.1C115.4,340.1,109,340,105.1,343.8z"/>
		<path class="st0" d="M212.8,117.1C197.7,129,189,146.8,189,166c0,5.5,4.5,10,10,10s10-4.5,10-10c0-13,5.9-25.1,16.2-33.1
			c4.4-3.4,5.1-9.7,1.7-14C223.5,114.5,217.2,113.7,212.8,117.1z"/>
		<path class="st0" d="M279.6,111c-8.8-4.6-18.7-7-28.6-7c-5.5,0-10,4.5-10,10s4.5,10,10,10c6.8,0,13.4,1.6,19.4,4.7
			c1.5,0.8,3.1,1.1,4.6,1.1c3.6,0,7.1-2,8.9-5.4C286.4,119.6,284.5,113.5,279.6,111z"/>
	</g>
</g>
</svg>
